<?xml version="1.0" encoding="UTF-8"?>
<svg xmlns="http://www.w3.org/2000/svg" viewBox="0 0 1200 420" width="1200" height="420" role="img" aria-label="Lab uptime panel — wazuh-manager, suricata, fortigate, sysmon-agents, MISP, VirusTotal, abuse.ch with 7-day uptime sparklines and last-check timestamps">
  <title>Lab uptime panel · last 7d</title>
  <desc>Per-component status: green = up, amber = degraded. Each row shows a 7-day sparkline of synthetic uptime samples, an overall percent, last-checked timestamp, and current latency.</desc>
  <defs>
    <linearGradient id="up-bg" x1="0" y1="0" x2="1" y2="1">
      <stop offset="0"   stop-color="#04070d"/>
      <stop offset=".55" stop-color="#08111d"/>
      <stop offset="1"   stop-color="#0a1424"/>
    </linearGradient>
    <linearGradient id="up-accent" x1="0" y1="0" x2="1" y2="1">
      <stop offset="0" stop-color="#5cf2c1"/>
      <stop offset="1" stop-color="#79e2ff"/>
    </linearGradient>
    <pattern id="up-grid" width="32" height="32" patternUnits="userSpaceOnUse">
      <path d="M 32 0 L 0 0 0 32" fill="none" stroke="#142036" stroke-width="1"/>
    </pattern>
  </defs>

  <rect width="1200" height="420" fill="url(#up-bg)"/>
  <rect width="1200" height="420" fill="url(#up-grid)" opacity=".22"/>

  <!-- corner ticks -->
  <g stroke="#1f2f4a" stroke-width="1.5" fill="none">
    <path d="M22 22 L22 60 M22 22 L60 22"/>
    <path d="M1178 22 L1140 22 M1178 22 L1178 60"/>
    <path d="M22 398 L22 360 M22 398 L60 398"/>
    <path d="M1178 398 L1140 398 M1178 398 L1178 360"/>
  </g>

  <!-- header -->
  <g transform="translate(60 56)" font-family="ui-monospace, 'JetBrains Mono', SFMono-Regular, Menlo, monospace">
    <circle r="6" fill="#ff5f57"/>
    <circle cx="20" r="6" fill="#febc2e"/>
    <circle cx="40" r="6" fill="#28c840"/>
    <text x="60" y="5" font-size="12" fill="#54688a" letter-spacing="2">~/var/log/lab/health.json — refresh 60s — window 7d — 168 samples/row</text>
    <g transform="translate(870 -2)" font-size="11" fill="#5cf2c1">
      <circle r="4" fill="#5cf2c1"><animate attributeName="opacity" values="1;.3;1" dur="1.6s" repeatCount="indefinite"/></circle>
      <text x="10" y="4">all green</text>
    </g>
  </g>

  <!-- column headers -->
  <g transform="translate(60 100)" font-family="ui-monospace, monospace" font-size="10" fill="#54688a" letter-spacing="2">
    <text x="0">STATUS</text>
    <text x="76">COMPONENT</text>
    <text x="320">LAST 7d</text>
    <text x="640">UPTIME</text>
    <text x="760">LATENCY</text>
    <text x="900">LAST CHECK</text>
    <text x="1040">NOTE</text>
  </g>

  <!-- rule under headers -->
  <line x1="60" y1="110" x2="1140" y2="110" stroke="#1f2f4a"/>

  <!-- rows -->
  <g font-family="ui-monospace, 'JetBrains Mono', monospace" font-size="11">

    <!-- row 1: wazuh-manager -->
    <g transform="translate(60 138)">
      <rect x="-6" y="-18" width="1086" height="32" rx="6" fill="#0a1424" opacity=".25"/>
      <g transform="translate(0 -2)">
        <rect width="56" height="18" rx="9" fill="rgba(92,242,193,.15)" stroke="#5cf2c1"/>
        <circle cx="14" cy="9" r="3" fill="#5cf2c1"><animate attributeName="opacity" values="1;.4;1" dur="1.8s" repeatCount="indefinite"/></circle>
        <text x="22" y="13" fill="#5cf2c1" font-size="9" letter-spacing="1">UP</text>
      </g>
      <text x="76" y="4" fill="#cfd6e4">wazuh-manager</text>
      <!-- sparkline -->
      <g transform="translate(320 -10)" fill="#5cf2c1">
        <rect x="0"   y="6"  width="6" height="14" rx="1"/>
        <rect x="8"   y="4"  width="6" height="16" rx="1"/>
        <rect x="16"  y="6"  width="6" height="14" rx="1"/>
        <rect x="24"  y="2"  width="6" height="18" rx="1"/>
        <rect x="32"  y="4"  width="6" height="16" rx="1"/>
        <rect x="40"  y="6"  width="6" height="14" rx="1"/>
        <rect x="48"  y="4"  width="6" height="16" rx="1"/>
        <rect x="56"  y="2"  width="6" height="18" rx="1"/>
        <rect x="64"  y="4"  width="6" height="16" rx="1"/>
        <rect x="72"  y="2"  width="6" height="18" rx="1"/>
        <rect x="80"  y="6"  width="6" height="14" rx="1"/>
        <rect x="88"  y="4"  width="6" height="16" rx="1"/>
        <rect x="96"  y="2"  width="6" height="18" rx="1"/>
        <rect x="104" y="4"  width="6" height="16" rx="1"/>
        <rect x="112" y="2"  width="6" height="18" rx="1"/>
        <rect x="120" y="4"  width="6" height="16" rx="1"/>
        <rect x="128" y="2"  width="6" height="18" rx="1"/>
        <rect x="136" y="4"  width="6" height="16" rx="1"/>
        <rect x="144" y="6"  width="6" height="14" rx="1"/>
        <rect x="152" y="2"  width="6" height="18" rx="1"/>
        <rect x="160" y="4"  width="6" height="16" rx="1"/>
        <rect x="168" y="2"  width="6" height="18" rx="1"/>
        <rect x="176" y="4"  width="6" height="16" rx="1"/>
        <rect x="184" y="2"  width="6" height="18" rx="1"/>
      </g>
      <text x="640" y="4" fill="#cfd6e4" font-variant-numeric="tabular-nums">99.94%</text>
      <text x="760" y="4" fill="#cfd6e4" font-variant-numeric="tabular-nums">37 ms</text>
      <text x="900" y="4" fill="#8ea0bd">12s ago</text>
      <text x="1040" y="4" fill="#54688a">22 rules</text>
    </g>

    <!-- row 2: suricata -->
    <g transform="translate(60 174)">
      <g transform="translate(0 -2)">
        <rect width="56" height="18" rx="9" fill="rgba(92,242,193,.15)" stroke="#5cf2c1"/>
        <circle cx="14" cy="9" r="3" fill="#5cf2c1"><animate attributeName="opacity" values="1;.4;1" dur="2.1s" repeatCount="indefinite"/></circle>
        <text x="22" y="13" fill="#5cf2c1" font-size="9" letter-spacing="1">UP</text>
      </g>
      <text x="76" y="4" fill="#cfd6e4">suricata-ids · eth1</text>
      <g transform="translate(320 -10)" fill="#5cf2c1">
        <rect x="0"   y="4" width="6" height="16" rx="1"/>
        <rect x="8"   y="2" width="6" height="18" rx="1"/>
        <rect x="16"  y="4" width="6" height="16" rx="1"/>
        <rect x="24"  y="2" width="6" height="18" rx="1"/>
        <rect x="32"  y="4" width="6" height="16" rx="1"/>
        <rect x="40"  y="2" width="6" height="18" rx="1"/>
        <rect x="48"  y="4" width="6" height="16" rx="1"/>
        <rect x="56"  y="2" width="6" height="18" rx="1"/>
        <rect x="64"  y="2" width="6" height="18" rx="1"/>
        <rect x="72"  y="4" width="6" height="16" rx="1"/>
        <rect x="80"  y="2" width="6" height="18" rx="1"/>
        <rect x="88"  y="4" width="6" height="16" rx="1"/>
        <rect x="96"  y="2" width="6" height="18" rx="1"/>
        <rect x="104" y="2" width="6" height="18" rx="1"/>
        <rect x="112" y="4" width="6" height="16" rx="1"/>
        <rect x="120" y="2" width="6" height="18" rx="1"/>
        <rect x="128" y="4" width="6" height="16" rx="1"/>
        <rect x="136" y="2" width="6" height="18" rx="1"/>
        <rect x="144" y="2" width="6" height="18" rx="1"/>
        <rect x="152" y="4" width="6" height="16" rx="1"/>
        <rect x="160" y="2" width="6" height="18" rx="1"/>
        <rect x="168" y="4" width="6" height="16" rx="1"/>
        <rect x="176" y="2" width="6" height="18" rx="1"/>
        <rect x="184" y="2" width="6" height="18" rx="1"/>
      </g>
      <text x="640" y="4" fill="#cfd6e4" font-variant-numeric="tabular-nums">99.99%</text>
      <text x="760" y="4" fill="#cfd6e4" font-variant-numeric="tabular-nums">11 ms</text>
      <text x="900" y="4" fill="#8ea0bd">7s ago</text>
      <text x="1040" y="4" fill="#54688a">eve.json ok</text>
    </g>

    <!-- row 3: fortigate -->
    <g transform="translate(60 210)">
      <rect x="-6" y="-18" width="1086" height="32" rx="6" fill="#0a1424" opacity=".25"/>
      <g transform="translate(0 -2)">
        <rect width="56" height="18" rx="9" fill="rgba(92,242,193,.15)" stroke="#5cf2c1"/>
        <circle cx="14" cy="9" r="3" fill="#5cf2c1"><animate attributeName="opacity" values="1;.4;1" dur="1.7s" repeatCount="indefinite"/></circle>
        <text x="22" y="13" fill="#5cf2c1" font-size="9" letter-spacing="1">UP</text>
      </g>
      <text x="76" y="4" fill="#cfd6e4">fortigate · syslog-ng feed</text>
      <g transform="translate(320 -10)" fill="#5cf2c1">
        <rect x="0"   y="4" width="6" height="16" rx="1"/>
        <rect x="8"   y="6" width="6" height="14" rx="1"/>
        <rect x="16"  y="4" width="6" height="16" rx="1"/>
        <rect x="24"  y="6" width="6" height="14" rx="1"/>
        <rect x="32"  y="4" width="6" height="16" rx="1"/>
        <rect x="40"  y="2" width="6" height="18" rx="1"/>
        <rect x="48"  y="4" width="6" height="16" rx="1"/>
        <rect x="56"  y="6" width="6" height="14" rx="1"/>
        <rect x="64"  y="4" width="6" height="16" rx="1"/>
        <rect x="72"  y="2" width="6" height="18" rx="1"/>
        <rect x="80"  y="4" width="6" height="16" rx="1"/>
        <rect x="88"  y="2" width="6" height="18" rx="1"/>
        <rect x="96"  y="4" width="6" height="16" rx="1"/>
        <rect x="104" y="2" width="6" height="18" rx="1"/>
        <rect x="112" y="4" width="6" height="16" rx="1"/>
        <rect x="120" y="6" width="6" height="14" rx="1"/>
        <rect x="128" y="4" width="6" height="16" rx="1"/>
        <rect x="136" y="2" width="6" height="18" rx="1"/>
        <rect x="144" y="4" width="6" height="16" rx="1"/>
        <rect x="152" y="2" width="6" height="18" rx="1"/>
        <rect x="160" y="4" width="6" height="16" rx="1"/>
        <rect x="168" y="2" width="6" height="18" rx="1"/>
        <rect x="176" y="4" width="6" height="16" rx="1"/>
        <rect x="184" y="2" width="6" height="18" rx="1"/>
      </g>
      <text x="640" y="4" fill="#cfd6e4" font-variant-numeric="tabular-nums">99.81%</text>
      <text x="760" y="4" fill="#cfd6e4" font-variant-numeric="tabular-nums">22 ms</text>
      <text x="900" y="4" fill="#8ea0bd">29s ago</text>
      <text x="1040" y="4" fill="#54688a">decoders v3</text>
    </g>

    <!-- row 4: sysmon-agents (degraded) -->
    <g transform="translate(60 246)">
      <g transform="translate(0 -2)">
        <rect width="56" height="18" rx="9" fill="rgba(255,184,107,.18)" stroke="#ffb86b"/>
        <circle cx="14" cy="9" r="3" fill="#ffb86b"><animate attributeName="opacity" values="1;.4;1" dur="1.4s" repeatCount="indefinite"/></circle>
        <text x="20" y="13" fill="#ffb86b" font-size="9" letter-spacing="1">DEG</text>
      </g>
      <text x="76" y="4" fill="#cfd6e4">sysmon-agents · 4/5 reporting</text>
      <g transform="translate(320 -10)">
        <rect x="0"   y="4" width="6" height="16" rx="1" fill="#5cf2c1"/>
        <rect x="8"   y="6" width="6" height="14" rx="1" fill="#5cf2c1"/>
        <rect x="16"  y="4" width="6" height="16" rx="1" fill="#5cf2c1"/>
        <rect x="24"  y="2" width="6" height="18" rx="1" fill="#5cf2c1"/>
        <rect x="32"  y="6" width="6" height="14" rx="1" fill="#5cf2c1"/>
        <rect x="40"  y="4" width="6" height="16" rx="1" fill="#5cf2c1"/>
        <rect x="48"  y="6" width="6" height="14" rx="1" fill="#5cf2c1"/>
        <rect x="56"  y="2" width="6" height="18" rx="1" fill="#5cf2c1"/>
        <rect x="64"  y="4" width="6" height="16" rx="1" fill="#5cf2c1"/>
        <rect x="72"  y="6" width="6" height="14" rx="1" fill="#5cf2c1"/>
        <rect x="80"  y="2" width="6" height="18" rx="1" fill="#5cf2c1"/>
        <rect x="88"  y="4" width="6" height="16" rx="1" fill="#5cf2c1"/>
        <rect x="96"  y="2" width="6" height="18" rx="1" fill="#5cf2c1"/>
        <rect x="104" y="6" width="6" height="14" rx="1" fill="#5cf2c1"/>
        <rect x="112" y="4" width="6" height="16" rx="1" fill="#5cf2c1"/>
        <rect x="120" y="2" width="6" height="18" rx="1" fill="#5cf2c1"/>
        <rect x="128" y="4" width="6" height="16" rx="1" fill="#5cf2c1"/>
        <rect x="136" y="2" width="6" height="18" rx="1" fill="#5cf2c1"/>
        <rect x="144" y="4" width="6" height="16" rx="1" fill="#5cf2c1"/>
        <rect x="152" y="2" width="6" height="18" rx="1" fill="#5cf2c1"/>
        <rect x="160" y="6" width="6" height="14" rx="1" fill="#ffb86b"/>
        <rect x="168" y="8" width="6" height="12" rx="1" fill="#ffb86b"/>
        <rect x="176" y="9" width="6" height="11" rx="1" fill="#ffb86b"/>
        <rect x="184" y="9" width="6" height="11" rx="1" fill="#ffb86b"/>
      </g>
      <text x="640" y="4" fill="#ffb86b" font-variant-numeric="tabular-nums">98.42%</text>
      <text x="760" y="4" fill="#cfd6e4" font-variant-numeric="tabular-nums">— ms</text>
      <text x="900" y="4" fill="#8ea0bd">3m ago</text>
      <text x="1040" y="4" fill="#ffb86b">WS-04 offline</text>
    </g>

    <!-- row 5: misp -->
    <g transform="translate(60 282)">
      <rect x="-6" y="-18" width="1086" height="32" rx="6" fill="#0a1424" opacity=".25"/>
      <g transform="translate(0 -2)">
        <rect width="56" height="18" rx="9" fill="rgba(92,242,193,.15)" stroke="#5cf2c1"/>
        <circle cx="14" cy="9" r="3" fill="#5cf2c1"><animate attributeName="opacity" values="1;.4;1" dur="2s" repeatCount="indefinite"/></circle>
        <text x="22" y="13" fill="#5cf2c1" font-size="9" letter-spacing="1">UP</text>
      </g>
      <text x="76" y="4" fill="#cfd6e4">misp · circl + abuse.ch</text>
      <g transform="translate(320 -10)" fill="#5cf2c1">
        <rect x="0"   y="6" width="6" height="14" rx="1"/>
        <rect x="8"   y="4" width="6" height="16" rx="1"/>
        <rect x="16"  y="6" width="6" height="14" rx="1"/>
        <rect x="24"  y="4" width="6" height="16" rx="1"/>
        <rect x="32"  y="6" width="6" height="14" rx="1"/>
        <rect x="40"  y="2" width="6" height="18" rx="1"/>
        <rect x="48"  y="4" width="6" height="16" rx="1"/>
        <rect x="56"  y="2" width="6" height="18" rx="1"/>
        <rect x="64"  y="4" width="6" height="16" rx="1"/>
        <rect x="72"  y="2" width="6" height="18" rx="1"/>
        <rect x="80"  y="4" width="6" height="16" rx="1"/>
        <rect x="88"  y="2" width="6" height="18" rx="1"/>
        <rect x="96"  y="4" width="6" height="16" rx="1"/>
        <rect x="104" y="6" width="6" height="14" rx="1"/>
        <rect x="112" y="4" width="6" height="16" rx="1"/>
        <rect x="120" y="2" width="6" height="18" rx="1"/>
        <rect x="128" y="4" width="6" height="16" rx="1"/>
        <rect x="136" y="2" width="6" height="18" rx="1"/>
        <rect x="144" y="4" width="6" height="16" rx="1"/>
        <rect x="152" y="2" width="6" height="18" rx="1"/>
        <rect x="160" y="4" width="6" height="16" rx="1"/>
        <rect x="168" y="2" width="6" height="18" rx="1"/>
        <rect x="176" y="4" width="6" height="16" rx="1"/>
        <rect x="184" y="2" width="6" height="18" rx="1"/>
      </g>
      <text x="640" y="4" fill="#cfd6e4" font-variant-numeric="tabular-nums">99.71%</text>
      <text x="760" y="4" fill="#cfd6e4" font-variant-numeric="tabular-nums">142 ms</text>
      <text x="900" y="4" fill="#8ea0bd">31s ago</text>
      <text x="1040" y="4" fill="#54688a">7h sync feed</text>
    </g>

    <!-- row 6: virustotal -->
    <g transform="translate(60 318)">
      <g transform="translate(0 -2)">
        <rect width="56" height="18" rx="9" fill="rgba(92,242,193,.15)" stroke="#5cf2c1"/>
        <circle cx="14" cy="9" r="3" fill="#5cf2c1"><animate attributeName="opacity" values="1;.4;1" dur="2.2s" repeatCount="indefinite"/></circle>
        <text x="22" y="13" fill="#5cf2c1" font-size="9" letter-spacing="1">UP</text>
      </g>
      <text x="76" y="4" fill="#cfd6e4">virustotal · v3 lookups</text>
      <g transform="translate(320 -10)" fill="#5cf2c1">
        <rect x="0"   y="4" width="6" height="16" rx="1"/>
        <rect x="8"   y="2" width="6" height="18" rx="1"/>
        <rect x="16"  y="4" width="6" height="16" rx="1"/>
        <rect x="24"  y="6" width="6" height="14" rx="1"/>
        <rect x="32"  y="4" width="6" height="16" rx="1"/>
        <rect x="40"  y="2" width="6" height="18" rx="1"/>
        <rect x="48"  y="4" width="6" height="16" rx="1"/>
        <rect x="56"  y="2" width="6" height="18" rx="1"/>
        <rect x="64"  y="4" width="6" height="16" rx="1"/>
        <rect x="72"  y="2" width="6" height="18" rx="1"/>
        <rect x="80"  y="4" width="6" height="16" rx="1"/>
        <rect x="88"  y="2" width="6" height="18" rx="1"/>
        <rect x="96"  y="4" width="6" height="16" rx="1"/>
        <rect x="104" y="2" width="6" height="18" rx="1"/>
        <rect x="112" y="4" width="6" height="16" rx="1"/>
        <rect x="120" y="2" width="6" height="18" rx="1"/>
        <rect x="128" y="4" width="6" height="16" rx="1"/>
        <rect x="136" y="2" width="6" height="18" rx="1"/>
        <rect x="144" y="4" width="6" height="16" rx="1"/>
        <rect x="152" y="2" width="6" height="18" rx="1"/>
        <rect x="160" y="4" width="6" height="16" rx="1"/>
        <rect x="168" y="2" width="6" height="18" rx="1"/>
        <rect x="176" y="4" width="6" height="16" rx="1"/>
        <rect x="184" y="2" width="6" height="18" rx="1"/>
      </g>
      <text x="640" y="4" fill="#cfd6e4" font-variant-numeric="tabular-nums">99.95%</text>
      <text x="760" y="4" fill="#cfd6e4" font-variant-numeric="tabular-nums">208 ms</text>
      <text x="900" y="4" fill="#8ea0bd">42s ago</text>
      <text x="1040" y="4" fill="#54688a">418/500 quota</text>
    </g>

    <!-- row 7: kibana dashboard -->
    <g transform="translate(60 354)">
      <rect x="-6" y="-18" width="1086" height="32" rx="6" fill="#0a1424" opacity=".25"/>
      <g transform="translate(0 -2)">
        <rect width="56" height="18" rx="9" fill="rgba(92,242,193,.15)" stroke="#5cf2c1"/>
        <circle cx="14" cy="9" r="3" fill="#5cf2c1"><animate attributeName="opacity" values="1;.4;1" dur="1.9s" repeatCount="indefinite"/></circle>
        <text x="22" y="13" fill="#5cf2c1" font-size="9" letter-spacing="1">UP</text>
      </g>
      <text x="76" y="4" fill="#cfd6e4">kibana · soc-overview</text>
      <g transform="translate(320 -10)" fill="#5cf2c1">
        <rect x="0"   y="2" width="6" height="18" rx="1"/>
        <rect x="8"   y="4" width="6" height="16" rx="1"/>
        <rect x="16"  y="2" width="6" height="18" rx="1"/>
        <rect x="24"  y="4" width="6" height="16" rx="1"/>
        <rect x="32"  y="2" width="6" height="18" rx="1"/>
        <rect x="40"  y="4" width="6" height="16" rx="1"/>
        <rect x="48"  y="2" width="6" height="18" rx="1"/>
        <rect x="56"  y="4" width="6" height="16" rx="1"/>
        <rect x="64"  y="2" width="6" height="18" rx="1"/>
        <rect x="72"  y="4" width="6" height="16" rx="1"/>
        <rect x="80"  y="2" width="6" height="18" rx="1"/>
        <rect x="88"  y="4" width="6" height="16" rx="1"/>
        <rect x="96"  y="2" width="6" height="18" rx="1"/>
        <rect x="104" y="4" width="6" height="16" rx="1"/>
        <rect x="112" y="2" width="6" height="18" rx="1"/>
        <rect x="120" y="4" width="6" height="16" rx="1"/>
        <rect x="128" y="2" width="6" height="18" rx="1"/>
        <rect x="136" y="4" width="6" height="16" rx="1"/>
        <rect x="144" y="2" width="6" height="18" rx="1"/>
        <rect x="152" y="4" width="6" height="16" rx="1"/>
        <rect x="160" y="2" width="6" height="18" rx="1"/>
        <rect x="168" y="4" width="6" height="16" rx="1"/>
        <rect x="176" y="2" width="6" height="18" rx="1"/>
        <rect x="184" y="4" width="6" height="16" rx="1"/>
      </g>
      <text x="640" y="4" fill="#cfd6e4" font-variant-numeric="tabular-nums">99.99%</text>
      <text x="760" y="4" fill="#cfd6e4" font-variant-numeric="tabular-nums">9 ms</text>
      <text x="900" y="4" fill="#8ea0bd">3s ago</text>
      <text x="1040" y="4" fill="#54688a">14 panels</text>
    </g>
  </g>

  <!-- footer -->
  <g transform="translate(60 393)" font-family="ui-monospace, monospace" font-size="10" fill="#54688a" letter-spacing="2">
    <text>OVERALL · 99.69%</text>
    <text x="200">7d INCIDENTS · 1 (degraded sysmon agent WS-04)</text>
    <text x="640">P95 LATENCY · 142 ms</text>
    <text x="900">EPS · 1.24k</text>
    <text x="1080" text-anchor="end">refreshed · 12s</text>
  </g>
</svg>
